<mxfile host="Electron" agent="Mozilla/5.0 (Windows NT 10.0; Win64; x64) AppleWebKit/537.36 (KHTML, like Gecko) draw.io/25.0.2 Chrome/128.0.6613.186 Electron/32.2.5 Safari/537.36" version="25.0.2">
  <diagram name="Page-1" id="3zWwlhzUp2kZAc_euaam">
    <mxGraphModel dx="1434" dy="956" grid="1" gridSize="10" guides="1" tooltips="1" connect="1" arrows="1" fold="1" page="1" pageScale="1" pageWidth="1169" pageHeight="827" math="0" shadow="0">
      <root>
        <mxCell id="0" />
        <mxCell id="1" parent="0" />
        <mxCell id="-2bECRd0YeKUwBOYWayJ-13" value="" style="endArrow=none;html=1;rounded=0;entryX=0;entryY=0.5;entryDx=0;entryDy=0;exitX=1;exitY=0.5;exitDx=0;exitDy=0;" parent="1" source="-2bECRd0YeKUwBOYWayJ-8" target="-2bECRd0YeKUwBOYWayJ-4" edge="1">
          <mxGeometry width="50" height="50" relative="1" as="geometry">
            <mxPoint x="350" y="350" as="sourcePoint" />
            <mxPoint x="400" y="300" as="targetPoint" />
          </mxGeometry>
        </mxCell>
        <mxCell id="-2bECRd0YeKUwBOYWayJ-16" value="" style="endArrow=none;html=1;rounded=0;edgeStyle=orthogonalEdgeStyle;exitX=1;exitY=0.5;exitDx=0;exitDy=0;entryX=1;entryY=0.5;entryDx=0;entryDy=0;" parent="1" source="-2bECRd0YeKUwBOYWayJ-2" target="-2bECRd0YeKUwBOYWayJ-4" edge="1">
          <mxGeometry width="50" height="50" relative="1" as="geometry">
            <mxPoint x="310" y="100" as="sourcePoint" />
            <mxPoint x="360" y="50" as="targetPoint" />
          </mxGeometry>
        </mxCell>
        <mxCell id="-2bECRd0YeKUwBOYWayJ-6" value="" style="group;rotation=-90;flipH=0;fontSize=12;" parent="1" vertex="1" connectable="0">
          <mxGeometry x="270" y="100" width="130" height="60" as="geometry" />
        </mxCell>
        <mxCell id="-2bECRd0YeKUwBOYWayJ-4" value="&amp;nbsp; BMS-Slave" style="rounded=1;whiteSpace=wrap;html=1;rotation=-90;align=left;fillColor=#d5e8d4;strokeColor=#82b366;fontSize=13;flipV=0;flipH=1;" parent="-2bECRd0YeKUwBOYWayJ-6" vertex="1">
          <mxGeometry width="130" height="60" as="geometry" />
        </mxCell>
        <mxCell id="-2bECRd0YeKUwBOYWayJ-5" value="" style="pointerEvents=1;shadow=0;dashed=0;html=1;strokeColor=none;fillColor=#000000;labelPosition=center;verticalLabelPosition=bottom;verticalAlign=top;align=center;outlineConnect=0;shape=mxgraph.veeam.cpu;rotation=-90;" parent="-2bECRd0YeKUwBOYWayJ-6" vertex="1">
          <mxGeometry x="43" y="-30" width="44.8" height="44.8" as="geometry" />
        </mxCell>
        <mxCell id="-2bECRd0YeKUwBOYWayJ-3" value="" style="group" parent="1" vertex="1" connectable="0">
          <mxGeometry x="30" y="240" width="180" height="80" as="geometry" />
        </mxCell>
        <mxCell id="-2bECRd0YeKUwBOYWayJ-2" value="&lt;font&gt;&amp;nbsp; &amp;nbsp; BMS Master&lt;/font&gt;" style="rounded=1;whiteSpace=wrap;html=1;align=left;fillColor=#dae8fc;strokeColor=#6c8ebf;fontSize=14;" parent="-2bECRd0YeKUwBOYWayJ-3" vertex="1">
          <mxGeometry width="180" height="80" as="geometry" />
        </mxCell>
        <mxCell id="-2bECRd0YeKUwBOYWayJ-1" value="" style="pointerEvents=1;shadow=0;dashed=0;html=1;strokeColor=none;fillColor=#000000;labelPosition=center;verticalLabelPosition=bottom;verticalAlign=top;align=center;outlineConnect=0;shape=mxgraph.veeam.cpu;" parent="-2bECRd0YeKUwBOYWayJ-3" vertex="1">
          <mxGeometry x="110" y="10" width="60" height="60" as="geometry" />
        </mxCell>
        <mxCell id="-2bECRd0YeKUwBOYWayJ-19" value="" style="rounded=0;whiteSpace=wrap;html=1;fillColor=default;strokeColor=none;flipH=0;" parent="1" vertex="1">
          <mxGeometry x="330" y="355" width="10" height="50" as="geometry" />
        </mxCell>
        <mxCell id="-2bECRd0YeKUwBOYWayJ-22" value="" style="endArrow=none;html=1;rounded=0;exitX=1;exitY=0.5;exitDx=0;exitDy=0;entryX=0.5;entryY=1;entryDx=0;entryDy=0;" parent="1" source="-2bECRd0YeKUwBOYWayJ-11" target="-2bECRd0YeKUwBOYWayJ-19" edge="1">
          <mxGeometry width="50" height="50" relative="1" as="geometry">
            <mxPoint x="290" y="410" as="sourcePoint" />
            <mxPoint x="335" y="410" as="targetPoint" />
          </mxGeometry>
        </mxCell>
        <mxCell id="-2bECRd0YeKUwBOYWayJ-24" value="" style="endArrow=none;html=1;rounded=0;entryX=0;entryY=0.5;entryDx=0;entryDy=0;exitX=0.5;exitY=0;exitDx=0;exitDy=0;" parent="1" source="-2bECRd0YeKUwBOYWayJ-19" target="-2bECRd0YeKUwBOYWayJ-8" edge="1">
          <mxGeometry width="50" height="50" relative="1" as="geometry">
            <mxPoint x="280" y="440" as="sourcePoint" />
            <mxPoint x="330" y="390" as="targetPoint" />
          </mxGeometry>
        </mxCell>
        <mxCell id="-2bECRd0YeKUwBOYWayJ-25" value="" style="endArrow=none;dashed=1;html=1;dashPattern=1 3;strokeWidth=2;rounded=0;entryX=0.5;entryY=0;entryDx=0;entryDy=0;exitX=0.5;exitY=1;exitDx=0;exitDy=0;" parent="1" source="-2bECRd0YeKUwBOYWayJ-19" target="-2bECRd0YeKUwBOYWayJ-19" edge="1">
          <mxGeometry width="50" height="50" relative="1" as="geometry">
            <mxPoint x="230" y="420" as="sourcePoint" />
            <mxPoint x="280" y="370" as="targetPoint" />
          </mxGeometry>
        </mxCell>
        <mxCell id="8A7yVOpYG2iTI46L8Dqd-26" value="Sense wires" style="edgeStyle=orthogonalEdgeStyle;rounded=0;orthogonalLoop=1;jettySize=auto;html=1;entryX=0;entryY=0.5;entryDx=0;entryDy=0;verticalAlign=bottom;" parent="1" source="-2bECRd0YeKUwBOYWayJ-4" target="8A7yVOpYG2iTI46L8Dqd-56" edge="1">
          <mxGeometry relative="1" as="geometry">
            <mxPoint x="421" y="130" as="targetPoint" />
          </mxGeometry>
        </mxCell>
        <mxCell id="8A7yVOpYG2iTI46L8Dqd-27" value="Sense wires" style="edgeStyle=orthogonalEdgeStyle;rounded=0;orthogonalLoop=1;jettySize=auto;html=1;exitX=0.5;exitY=1;exitDx=0;exitDy=0;entryX=0;entryY=0.5;entryDx=0;entryDy=0;verticalAlign=bottom;" parent="1" source="-2bECRd0YeKUwBOYWayJ-8" target="8A7yVOpYG2iTI46L8Dqd-51" edge="1">
          <mxGeometry relative="1" as="geometry">
            <mxPoint x="421" y="280" as="targetPoint" />
          </mxGeometry>
        </mxCell>
        <mxCell id="8A7yVOpYG2iTI46L8Dqd-28" value="Sense wires" style="edgeStyle=orthogonalEdgeStyle;rounded=0;orthogonalLoop=1;jettySize=auto;html=1;exitX=0.5;exitY=1;exitDx=0;exitDy=0;entryX=0;entryY=0.5;entryDx=0;entryDy=0;verticalAlign=bottom;" parent="1" source="-2bECRd0YeKUwBOYWayJ-11" target="8A7yVOpYG2iTI46L8Dqd-41" edge="1">
          <mxGeometry relative="1" as="geometry">
            <mxPoint x="421.9999999999999" y="480" as="targetPoint" />
          </mxGeometry>
        </mxCell>
        <mxCell id="8A7yVOpYG2iTI46L8Dqd-32" value="" style="endArrow=none;dashed=1;html=1;rounded=0;exitX=1;exitY=0.25;exitDx=0;exitDy=0;" parent="1" source="8A7yVOpYG2iTI46L8Dqd-34" edge="1">
          <mxGeometry width="50" height="50" relative="1" as="geometry">
            <mxPoint x="767" y="232.5" as="sourcePoint" />
            <mxPoint x="677" y="265" as="targetPoint" />
          </mxGeometry>
        </mxCell>
        <mxCell id="8A7yVOpYG2iTI46L8Dqd-33" value="" style="endArrow=none;dashed=1;html=1;rounded=0;exitX=1;exitY=0.75;exitDx=0;exitDy=0;" parent="1" source="8A7yVOpYG2iTI46L8Dqd-34" edge="1">
          <mxGeometry width="50" height="50" relative="1" as="geometry">
            <mxPoint x="787" y="297" as="sourcePoint" />
            <mxPoint x="677" y="295" as="targetPoint" />
          </mxGeometry>
        </mxCell>
        <mxCell id="8A7yVOpYG2iTI46L8Dqd-34" value="&lt;font style=&quot;font-size: 13px;&quot; face=&quot;Times New Roman&quot;&gt;BJB&lt;/font&gt;" style="whiteSpace=wrap;html=1;fillColor=none;rounded=0;container=0;aspect=fixed;" parent="1" vertex="1">
          <mxGeometry x="577" y="250" width="60" height="60" as="geometry" />
        </mxCell>
        <mxCell id="8A7yVOpYG2iTI46L8Dqd-48" value="" style="group;aspect=fixed;flipH=1;" parent="1" vertex="1" connectable="0">
          <mxGeometry x="447" y="414" width="44" height="132" as="geometry" />
        </mxCell>
        <mxCell id="8A7yVOpYG2iTI46L8Dqd-41" value="" style="rounded=1;whiteSpace=wrap;html=1;fillColor=#fff2cc;strokeColor=#d6b656;flipV=1;" parent="8A7yVOpYG2iTI46L8Dqd-48" vertex="1">
          <mxGeometry width="44" height="132" as="geometry" />
        </mxCell>
        <mxCell id="8A7yVOpYG2iTI46L8Dqd-44" value="" style="verticalLabelPosition=bottom;shadow=0;dashed=0;align=center;fillColor=strokeColor;html=1;verticalAlign=top;strokeWidth=1;shape=mxgraph.electrical.miscellaneous.monocell_battery;rotation=-90;flipV=1;" parent="8A7yVOpYG2iTI46L8Dqd-48" vertex="1">
          <mxGeometry x="-5.500000000000007" y="16.5" width="55.00000000000001" height="33" as="geometry" />
        </mxCell>
        <mxCell id="8A7yVOpYG2iTI46L8Dqd-45" value="" style="verticalLabelPosition=bottom;shadow=0;dashed=0;align=center;fillColor=strokeColor;html=1;verticalAlign=top;strokeWidth=1;shape=mxgraph.electrical.miscellaneous.monocell_battery;rotation=-90;flipV=1;" parent="8A7yVOpYG2iTI46L8Dqd-48" vertex="1">
          <mxGeometry x="-5.500000000000007" y="49.49999999999999" width="55.00000000000001" height="33" as="geometry" />
        </mxCell>
        <mxCell id="8A7yVOpYG2iTI46L8Dqd-46" value="" style="verticalLabelPosition=bottom;shadow=0;dashed=0;align=center;fillColor=strokeColor;html=1;verticalAlign=top;strokeWidth=1;shape=mxgraph.electrical.miscellaneous.monocell_battery;rotation=-90;flipV=1;" parent="8A7yVOpYG2iTI46L8Dqd-48" vertex="1">
          <mxGeometry x="-5.500000000000007" y="82.49999999999999" width="55.00000000000001" height="33" as="geometry" />
        </mxCell>
        <mxCell id="8A7yVOpYG2iTI46L8Dqd-65" value="" style="endArrow=none;html=1;rounded=0;entryX=0;entryY=0.5;entryDx=0;entryDy=0;entryPerimeter=0;exitX=0.5;exitY=1;exitDx=0;exitDy=0;" parent="8A7yVOpYG2iTI46L8Dqd-48" source="8A7yVOpYG2iTI46L8Dqd-41" target="8A7yVOpYG2iTI46L8Dqd-46" edge="1">
          <mxGeometry width="50" height="50" relative="1" as="geometry">
            <mxPoint x="-60" y="176" as="sourcePoint" />
            <mxPoint x="-10" y="126" as="targetPoint" />
          </mxGeometry>
        </mxCell>
        <mxCell id="8A7yVOpYG2iTI46L8Dqd-50" value="" style="group;aspect=fixed;flipH=1;" parent="1" vertex="1" connectable="0">
          <mxGeometry x="447" y="214" width="44" height="132" as="geometry" />
        </mxCell>
        <mxCell id="8A7yVOpYG2iTI46L8Dqd-51" value="" style="rounded=1;whiteSpace=wrap;html=1;fillColor=#fff2cc;strokeColor=#d6b656;flipV=1;" parent="8A7yVOpYG2iTI46L8Dqd-50" vertex="1">
          <mxGeometry width="44" height="132" as="geometry" />
        </mxCell>
        <mxCell id="8A7yVOpYG2iTI46L8Dqd-52" value="" style="verticalLabelPosition=bottom;shadow=0;dashed=0;align=center;fillColor=strokeColor;html=1;verticalAlign=top;strokeWidth=1;shape=mxgraph.electrical.miscellaneous.monocell_battery;rotation=-90;flipV=1;" parent="8A7yVOpYG2iTI46L8Dqd-50" vertex="1">
          <mxGeometry x="-5.500000000000007" y="16.5" width="55.00000000000001" height="33" as="geometry" />
        </mxCell>
        <mxCell id="8A7yVOpYG2iTI46L8Dqd-53" value="" style="verticalLabelPosition=bottom;shadow=0;dashed=0;align=center;fillColor=strokeColor;html=1;verticalAlign=top;strokeWidth=1;shape=mxgraph.electrical.miscellaneous.monocell_battery;rotation=-90;flipV=1;" parent="8A7yVOpYG2iTI46L8Dqd-50" vertex="1">
          <mxGeometry x="-5.500000000000007" y="49.49999999999999" width="55.00000000000001" height="33" as="geometry" />
        </mxCell>
        <mxCell id="8A7yVOpYG2iTI46L8Dqd-54" value="" style="verticalLabelPosition=bottom;shadow=0;dashed=0;align=center;fillColor=strokeColor;html=1;verticalAlign=top;strokeWidth=1;shape=mxgraph.electrical.miscellaneous.monocell_battery;rotation=-90;flipV=1;" parent="8A7yVOpYG2iTI46L8Dqd-50" vertex="1">
          <mxGeometry x="-5.500000000000007" y="82.49999999999999" width="55.00000000000001" height="33" as="geometry" />
        </mxCell>
        <mxCell id="8A7yVOpYG2iTI46L8Dqd-55" value="" style="group;aspect=fixed;flipH=1;flipV=0;" parent="1" vertex="1" connectable="0">
          <mxGeometry x="447" y="64" width="44" height="132" as="geometry" />
        </mxCell>
        <mxCell id="8A7yVOpYG2iTI46L8Dqd-56" value="" style="rounded=1;whiteSpace=wrap;html=1;fillColor=#fff2cc;strokeColor=#d6b656;flipV=1;" parent="8A7yVOpYG2iTI46L8Dqd-55" vertex="1">
          <mxGeometry width="44" height="132" as="geometry" />
        </mxCell>
        <mxCell id="8A7yVOpYG2iTI46L8Dqd-57" value="" style="verticalLabelPosition=bottom;shadow=0;dashed=0;align=center;fillColor=strokeColor;html=1;verticalAlign=top;strokeWidth=1;shape=mxgraph.electrical.miscellaneous.monocell_battery;rotation=-90;flipV=1;" parent="8A7yVOpYG2iTI46L8Dqd-55" vertex="1">
          <mxGeometry x="-5.5" y="16.5" width="55.00000000000001" height="33" as="geometry" />
        </mxCell>
        <mxCell id="8A7yVOpYG2iTI46L8Dqd-58" value="" style="verticalLabelPosition=bottom;shadow=0;dashed=0;align=center;fillColor=strokeColor;html=1;verticalAlign=top;strokeWidth=1;shape=mxgraph.electrical.miscellaneous.monocell_battery;rotation=-90;flipV=1;" parent="8A7yVOpYG2iTI46L8Dqd-55" vertex="1">
          <mxGeometry x="-5.5" y="49.49999999999999" width="55.00000000000001" height="33" as="geometry" />
        </mxCell>
        <mxCell id="8A7yVOpYG2iTI46L8Dqd-59" value="" style="verticalLabelPosition=bottom;shadow=0;dashed=0;align=center;fillColor=strokeColor;html=1;verticalAlign=top;strokeWidth=1;shape=mxgraph.electrical.miscellaneous.monocell_battery;rotation=-90;flipV=1;" parent="8A7yVOpYG2iTI46L8Dqd-55" vertex="1">
          <mxGeometry x="-5.5" y="82.49999999999999" width="55.00000000000001" height="33" as="geometry" />
        </mxCell>
        <mxCell id="8A7yVOpYG2iTI46L8Dqd-66" value="" style="endArrow=none;html=1;rounded=0;entryX=0.5;entryY=0;entryDx=0;entryDy=0;exitX=1;exitY=0.5;exitDx=0;exitDy=0;exitPerimeter=0;" parent="8A7yVOpYG2iTI46L8Dqd-55" source="8A7yVOpYG2iTI46L8Dqd-57" target="8A7yVOpYG2iTI46L8Dqd-56" edge="1">
          <mxGeometry width="50" height="50" relative="1" as="geometry">
            <mxPoint x="-10" y="46" as="sourcePoint" />
            <mxPoint x="40" y="-4" as="targetPoint" />
          </mxGeometry>
        </mxCell>
        <mxCell id="8A7yVOpYG2iTI46L8Dqd-60" value="" style="endArrow=none;html=1;rounded=0;entryX=0;entryY=0.5;entryDx=0;entryDy=0;exitX=1;exitY=0.5;exitDx=0;exitDy=0;exitPerimeter=0;entryPerimeter=0;" parent="1" source="8A7yVOpYG2iTI46L8Dqd-52" target="8A7yVOpYG2iTI46L8Dqd-59" edge="1">
          <mxGeometry width="50" height="50" relative="1" as="geometry">
            <mxPoint x="387" y="260" as="sourcePoint" />
            <mxPoint x="437" y="210" as="targetPoint" />
          </mxGeometry>
        </mxCell>
        <mxCell id="8A7yVOpYG2iTI46L8Dqd-35" value="" style="endArrow=none;html=1;rounded=0;entryX=0;entryY=0.25;entryDx=0;entryDy=0;edgeStyle=orthogonalEdgeStyle;exitX=0.5;exitY=0;exitDx=0;exitDy=0;" parent="1" source="8A7yVOpYG2iTI46L8Dqd-56" target="8A7yVOpYG2iTI46L8Dqd-34" edge="1">
          <mxGeometry width="50" height="50" relative="1" as="geometry">
            <mxPoint x="469" y="60" as="sourcePoint" />
            <mxPoint x="607" y="100" as="targetPoint" />
          </mxGeometry>
        </mxCell>
        <mxCell id="8A7yVOpYG2iTI46L8Dqd-36" value="" style="endArrow=none;html=1;rounded=0;entryX=0;entryY=0.75;entryDx=0;entryDy=0;edgeStyle=orthogonalEdgeStyle;exitX=0.5;exitY=1;exitDx=0;exitDy=0;" parent="1" source="8A7yVOpYG2iTI46L8Dqd-41" target="8A7yVOpYG2iTI46L8Dqd-34" edge="1">
          <mxGeometry width="50" height="50" relative="1" as="geometry">
            <mxPoint x="477" y="560" as="sourcePoint" />
            <mxPoint x="587" y="253" as="targetPoint" />
          </mxGeometry>
        </mxCell>
        <mxCell id="-2bECRd0YeKUwBOYWayJ-7" value="" style="group;rotation=-90;flipH=0;" parent="1" vertex="1" connectable="0">
          <mxGeometry x="270" y="250" width="130" height="60" as="geometry" />
        </mxCell>
        <mxCell id="-2bECRd0YeKUwBOYWayJ-8" value="&lt;font style=&quot;font-size: 13px;&quot;&gt;&amp;nbsp; BMS-Slave&lt;/font&gt;" style="rounded=1;whiteSpace=wrap;html=1;rotation=-90;align=left;fillColor=#d5e8d4;strokeColor=#82b366;" parent="-2bECRd0YeKUwBOYWayJ-7" vertex="1">
          <mxGeometry width="130" height="60" as="geometry" />
        </mxCell>
        <mxCell id="-2bECRd0YeKUwBOYWayJ-9" value="" style="pointerEvents=1;shadow=0;dashed=0;html=1;strokeColor=none;fillColor=#000000;labelPosition=center;verticalLabelPosition=bottom;verticalAlign=top;align=center;outlineConnect=0;shape=mxgraph.veeam.cpu;rotation=-90;" parent="-2bECRd0YeKUwBOYWayJ-7" vertex="1">
          <mxGeometry x="43" y="-30" width="44.8" height="44.8" as="geometry" />
        </mxCell>
        <mxCell id="-2bECRd0YeKUwBOYWayJ-10" value="" style="group;rotation=-90;flipH=0;" parent="1" vertex="1" connectable="0">
          <mxGeometry x="270" y="450" width="130" height="60" as="geometry" />
        </mxCell>
        <mxCell id="-2bECRd0YeKUwBOYWayJ-11" value="&lt;font style=&quot;font-size: 13px;&quot;&gt;&amp;nbsp; BMS-Slave&lt;/font&gt;" style="rounded=1;whiteSpace=wrap;html=1;rotation=-90;align=left;fillColor=#d5e8d4;strokeColor=#82b366;flipH=1;" parent="-2bECRd0YeKUwBOYWayJ-10" vertex="1">
          <mxGeometry width="130" height="60" as="geometry" />
        </mxCell>
        <mxCell id="-2bECRd0YeKUwBOYWayJ-12" value="" style="pointerEvents=1;shadow=0;dashed=0;html=1;strokeColor=none;fillColor=#000000;labelPosition=center;verticalLabelPosition=bottom;verticalAlign=top;align=center;outlineConnect=0;shape=mxgraph.veeam.cpu;rotation=-90;" parent="-2bECRd0YeKUwBOYWayJ-10" vertex="1">
          <mxGeometry x="43" y="-30" width="44.8" height="44.8" as="geometry" />
        </mxCell>
        <mxCell id="8A7yVOpYG2iTI46L8Dqd-61" value="" style="rounded=0;whiteSpace=wrap;html=1;fillColor=default;strokeColor=none;flipH=0;" parent="1" vertex="1">
          <mxGeometry x="464" y="355" width="10" height="50" as="geometry" />
        </mxCell>
        <mxCell id="8A7yVOpYG2iTI46L8Dqd-62" value="" style="endArrow=none;dashed=1;html=1;dashPattern=1 3;strokeWidth=2;rounded=0;entryX=0.5;entryY=0;entryDx=0;entryDy=0;exitX=0.5;exitY=1;exitDx=0;exitDy=0;" parent="1" source="8A7yVOpYG2iTI46L8Dqd-61" target="8A7yVOpYG2iTI46L8Dqd-61" edge="1">
          <mxGeometry width="50" height="50" relative="1" as="geometry">
            <mxPoint x="364" y="420" as="sourcePoint" />
            <mxPoint x="414" y="370" as="targetPoint" />
          </mxGeometry>
        </mxCell>
        <mxCell id="8A7yVOpYG2iTI46L8Dqd-63" value="" style="endArrow=none;html=1;rounded=0;entryX=0;entryY=0.5;entryDx=0;entryDy=0;entryPerimeter=0;exitX=0.5;exitY=0;exitDx=0;exitDy=0;" parent="1" source="8A7yVOpYG2iTI46L8Dqd-61" target="8A7yVOpYG2iTI46L8Dqd-54" edge="1">
          <mxGeometry width="50" height="50" relative="1" as="geometry">
            <mxPoint x="437" y="390" as="sourcePoint" />
            <mxPoint x="487" y="340" as="targetPoint" />
          </mxGeometry>
        </mxCell>
        <mxCell id="8A7yVOpYG2iTI46L8Dqd-64" value="" style="endArrow=none;html=1;rounded=0;entryX=0.5;entryY=1;entryDx=0;entryDy=0;exitX=1;exitY=0.5;exitDx=0;exitDy=0;exitPerimeter=0;" parent="1" source="8A7yVOpYG2iTI46L8Dqd-44" target="8A7yVOpYG2iTI46L8Dqd-61" edge="1">
          <mxGeometry width="50" height="50" relative="1" as="geometry">
            <mxPoint x="479" y="365" as="sourcePoint" />
            <mxPoint x="479" y="351" as="targetPoint" />
          </mxGeometry>
        </mxCell>
      </root>
    </mxGraphModel>
  </diagram>
</mxfile>
